<svg class="clacket-logo" version="1.1" x="0px" y="0px" xml:space="preserve"  viewBox="0 0 512 512">
	<g>
		<path d="M82.4,92.2l224-33.2L302,29.8c-2-13.6-12.8-21.2-30.4-21.2C264,8.6,258,9.8,258,9.8L0,48.2l7.2,49.2v175.2    c0,14.8,12,27.2,27.2,27.2h246.8c14.8,0,27.2-12,27.2-27.2V92.2H82.4z M272.8,102.2L258.4,135h-20.8l14.4-32.8H272.8z     M240.8,102.2L226.4,135h-20.8l14.4-32.8H240.8z M208.8,102.2L194.4,135h-20.8l14.4-32.8H208.8z M176.8,102.2L162.4,135h-20.8    l14.4-32.8H176.8z M144.8,102.2L130.4,135h-20.8l14.4-32.8H144.8z M92,102.2h20.8L98.4,135H77.6L92,102.2z M60,102.2h20.8    L66.4,135H45.6L60,102.2z M34.8,135H18.4v-32.8h30.8L34.8,135z M274.4,19c16,0.8,17.2,9.2,17.6,12.4l2.8,18.8l-30,4.4L274.4,19z     M243.2,22.6l17.2-2.8c0,0,1.2-0.4,3.2-0.4l-10,36.8l-20.4,3.2L243.2,22.6z M211.6,27.4l20.4-3.2L222,61l-20.4,3.2L211.6,27.4z     M180.4,32.2l20.4-3.2l-10,36.8L170.4,69L180.4,32.2z M148.8,36.6l20.4-3.2l-10,36.8l-20.4,3.2L148.8,36.6z M116.8,41.4l20.4-3.2    L127.6,75l-20.8,3.2L116.8,41.4z M85.6,46.2L106,43L96,79.8L75.6,83L85.6,46.2z M54,51l20.4-3.2l-10,36.8L44,87.8L54,51z M12.4,57    l30.4-4.8L32.8,89l-15.2,2.4L12.4,57z M298.8,273c0,9.2-7.6,16.8-16.8,16.8H35.2c-9.2,0-16.8-7.6-16.8-16.8v-11.6h280.4V273z     M298.8,251H18V145.4h280.8V251z M298.8,135h-29.6l14.4-32.8h15.2V135z" fill="#ecf0f0"/>
	</g>
</svg>
